<mxfile host="Electron" agent="Mozilla/5.0 (Windows NT 10.0; Win64; x64) AppleWebKit/537.36 (KHTML, like Gecko) draw.io/28.1.2 Chrome/138.0.7204.243 Electron/37.4.0 Safari/537.36" version="28.1.2">
  <diagram name="Page-1" id="UafSCamj3MuHK4nfQ8L9">
    <mxGraphModel dx="1281" dy="626" grid="1" gridSize="10" guides="1" tooltips="1" connect="1" arrows="1" fold="1" page="1" pageScale="1" pageWidth="850" pageHeight="1100" math="0" shadow="0">
      <root>
        <mxCell id="0" />
        <mxCell id="1" parent="0" />
        <mxCell id="q54ViZXTZ3jLKYGIA-PN-1" value="0NF" style="text;html=1;align=center;verticalAlign=middle;whiteSpace=wrap;rounded=0;" vertex="1" parent="1">
          <mxGeometry x="20" y="20" width="60" height="30" as="geometry" />
        </mxCell>
        <mxCell id="q54ViZXTZ3jLKYGIA-PN-2" value="Patiënt" style="text;html=1;align=center;verticalAlign=middle;whiteSpace=wrap;rounded=0;" vertex="1" parent="1">
          <mxGeometry x="20" y="80" width="60" height="30" as="geometry" />
        </mxCell>
        <mxCell id="q54ViZXTZ3jLKYGIA-PN-10" value="1NF" style="text;html=1;align=center;verticalAlign=middle;whiteSpace=wrap;rounded=0;" vertex="1" parent="1">
          <mxGeometry x="30" y="210" width="60" height="30" as="geometry" />
        </mxCell>
        <mxCell id="q54ViZXTZ3jLKYGIA-PN-11" value="Patiënt" style="text;html=1;align=center;verticalAlign=middle;whiteSpace=wrap;rounded=0;" vertex="1" parent="1">
          <mxGeometry x="30" y="270" width="60" height="30" as="geometry" />
        </mxCell>
        <mxCell id="q54ViZXTZ3jLKYGIA-PN-12" value="patiënt_id" style="rounded=0;whiteSpace=wrap;html=1;" vertex="1" parent="1">
          <mxGeometry x="130" y="255" width="120" height="60" as="geometry" />
        </mxCell>
        <mxCell id="q54ViZXTZ3jLKYGIA-PN-13" value="patiëntnaam" style="rounded=0;whiteSpace=wrap;html=1;" vertex="1" parent="1">
          <mxGeometry x="370" y="255" width="120" height="60" as="geometry" />
        </mxCell>
        <mxCell id="q54ViZXTZ3jLKYGIA-PN-14" value="diagnose" style="rounded=0;whiteSpace=wrap;html=1;" vertex="1" parent="1">
          <mxGeometry x="490" y="255" width="120" height="60" as="geometry" />
        </mxCell>
        <mxCell id="q54ViZXTZ3jLKYGIA-PN-15" value="dokter" style="rounded=0;whiteSpace=wrap;html=1;" vertex="1" parent="1">
          <mxGeometry x="610" y="255" width="120" height="60" as="geometry" />
        </mxCell>
        <mxCell id="q54ViZXTZ3jLKYGIA-PN-16" value="dokter_specialisatie" style="rounded=0;whiteSpace=wrap;html=1;" vertex="1" parent="1">
          <mxGeometry x="730" y="255" width="120" height="60" as="geometry" />
        </mxCell>
        <mxCell id="q54ViZXTZ3jLKYGIA-PN-17" value="kamernummer" style="rounded=0;whiteSpace=wrap;html=1;" vertex="1" parent="1">
          <mxGeometry x="850" y="255" width="120" height="60" as="geometry" />
        </mxCell>
        <mxCell id="q54ViZXTZ3jLKYGIA-PN-18" value="bezoekdatum" style="rounded=0;whiteSpace=wrap;html=1;" vertex="1" parent="1">
          <mxGeometry x="250" y="255" width="120" height="60" as="geometry" />
        </mxCell>
        <mxCell id="q54ViZXTZ3jLKYGIA-PN-20" value="" style="endArrow=classic;startArrow=classic;html=1;rounded=0;" edge="1" parent="1">
          <mxGeometry width="50" height="50" relative="1" as="geometry">
            <mxPoint x="130" y="250" as="sourcePoint" />
            <mxPoint x="370" y="250" as="targetPoint" />
          </mxGeometry>
        </mxCell>
        <mxCell id="q54ViZXTZ3jLKYGIA-PN-21" value="patiënt_id" style="rounded=0;whiteSpace=wrap;html=1;" vertex="1" parent="1">
          <mxGeometry x="130" y="75" width="120" height="60" as="geometry" />
        </mxCell>
        <mxCell id="q54ViZXTZ3jLKYGIA-PN-22" value="patiëntnaam" style="rounded=0;whiteSpace=wrap;html=1;" vertex="1" parent="1">
          <mxGeometry x="370" y="75" width="120" height="60" as="geometry" />
        </mxCell>
        <mxCell id="q54ViZXTZ3jLKYGIA-PN-23" value="diagnose" style="rounded=0;whiteSpace=wrap;html=1;" vertex="1" parent="1">
          <mxGeometry x="490" y="75" width="120" height="60" as="geometry" />
        </mxCell>
        <mxCell id="q54ViZXTZ3jLKYGIA-PN-24" value="dokter" style="rounded=0;whiteSpace=wrap;html=1;" vertex="1" parent="1">
          <mxGeometry x="610" y="75" width="120" height="60" as="geometry" />
        </mxCell>
        <mxCell id="q54ViZXTZ3jLKYGIA-PN-25" value="dokter_specialisatie" style="rounded=0;whiteSpace=wrap;html=1;" vertex="1" parent="1">
          <mxGeometry x="730" y="75" width="120" height="60" as="geometry" />
        </mxCell>
        <mxCell id="q54ViZXTZ3jLKYGIA-PN-26" value="kamernummer" style="rounded=0;whiteSpace=wrap;html=1;" vertex="1" parent="1">
          <mxGeometry x="850" y="75" width="120" height="60" as="geometry" />
        </mxCell>
        <mxCell id="q54ViZXTZ3jLKYGIA-PN-27" value="bezoekdatum" style="rounded=0;whiteSpace=wrap;html=1;" vertex="1" parent="1">
          <mxGeometry x="250" y="75" width="120" height="60" as="geometry" />
        </mxCell>
        <mxCell id="q54ViZXTZ3jLKYGIA-PN-28" value="" style="endArrow=classic;startArrow=classic;html=1;rounded=0;" edge="1" parent="1">
          <mxGeometry width="50" height="50" relative="1" as="geometry">
            <mxPoint x="130" y="70" as="sourcePoint" />
            <mxPoint x="370" y="70" as="targetPoint" />
          </mxGeometry>
        </mxCell>
        <mxCell id="q54ViZXTZ3jLKYGIA-PN-29" value="2NF" style="text;html=1;align=center;verticalAlign=middle;whiteSpace=wrap;rounded=0;" vertex="1" parent="1">
          <mxGeometry x="40" y="410" width="60" height="30" as="geometry" />
        </mxCell>
        <mxCell id="q54ViZXTZ3jLKYGIA-PN-30" value="Patiënt" style="text;html=1;align=center;verticalAlign=middle;whiteSpace=wrap;rounded=0;" vertex="1" parent="1">
          <mxGeometry x="40" y="470" width="60" height="30" as="geometry" />
        </mxCell>
        <mxCell id="q54ViZXTZ3jLKYGIA-PN-31" value="patiënt_id" style="rounded=0;whiteSpace=wrap;html=1;" vertex="1" parent="1">
          <mxGeometry x="130" y="575" width="120" height="60" as="geometry" />
        </mxCell>
        <mxCell id="q54ViZXTZ3jLKYGIA-PN-32" value="patiëntnaam" style="rounded=0;whiteSpace=wrap;html=1;" vertex="1" parent="1">
          <mxGeometry x="250" y="450" width="120" height="60" as="geometry" />
        </mxCell>
        <mxCell id="q54ViZXTZ3jLKYGIA-PN-33" value="diagnose" style="rounded=0;whiteSpace=wrap;html=1;" vertex="1" parent="1">
          <mxGeometry x="370" y="575" width="120" height="60" as="geometry" />
        </mxCell>
        <mxCell id="q54ViZXTZ3jLKYGIA-PN-34" value="dokter" style="rounded=0;whiteSpace=wrap;html=1;" vertex="1" parent="1">
          <mxGeometry x="490" y="575" width="120" height="60" as="geometry" />
        </mxCell>
        <mxCell id="q54ViZXTZ3jLKYGIA-PN-35" value="dokter_specialisatie" style="rounded=0;whiteSpace=wrap;html=1;" vertex="1" parent="1">
          <mxGeometry x="610" y="575" width="120" height="60" as="geometry" />
        </mxCell>
        <mxCell id="q54ViZXTZ3jLKYGIA-PN-36" value="kamernummer" style="rounded=0;whiteSpace=wrap;html=1;" vertex="1" parent="1">
          <mxGeometry x="730" y="575" width="120" height="60" as="geometry" />
        </mxCell>
        <mxCell id="q54ViZXTZ3jLKYGIA-PN-37" value="bezoekdatum" style="rounded=0;whiteSpace=wrap;html=1;" vertex="1" parent="1">
          <mxGeometry x="250" y="575" width="120" height="60" as="geometry" />
        </mxCell>
        <mxCell id="q54ViZXTZ3jLKYGIA-PN-38" value="" style="endArrow=classic;startArrow=classic;html=1;rounded=0;" edge="1" parent="1">
          <mxGeometry width="50" height="50" relative="1" as="geometry">
            <mxPoint x="130" y="570" as="sourcePoint" />
            <mxPoint x="370" y="570" as="targetPoint" />
          </mxGeometry>
        </mxCell>
        <mxCell id="q54ViZXTZ3jLKYGIA-PN-39" value="patiënt_id" style="rounded=0;whiteSpace=wrap;html=1;" vertex="1" parent="1">
          <mxGeometry x="130" y="450" width="120" height="60" as="geometry" />
        </mxCell>
        <mxCell id="q54ViZXTZ3jLKYGIA-PN-40" value="Bezoek" style="text;html=1;align=center;verticalAlign=middle;resizable=0;points=[];autosize=1;strokeColor=none;fillColor=none;" vertex="1" parent="1">
          <mxGeometry x="40" y="590" width="60" height="30" as="geometry" />
        </mxCell>
        <mxCell id="q54ViZXTZ3jLKYGIA-PN-41" value="" style="endArrow=classic;startArrow=classic;html=1;rounded=0;" edge="1" parent="1">
          <mxGeometry width="50" height="50" relative="1" as="geometry">
            <mxPoint x="130" y="440" as="sourcePoint" />
            <mxPoint x="250" y="440" as="targetPoint" />
          </mxGeometry>
        </mxCell>
        <mxCell id="q54ViZXTZ3jLKYGIA-PN-42" value="" style="endArrow=classic;html=1;rounded=0;exitX=0.5;exitY=0;exitDx=0;exitDy=0;entryX=0.5;entryY=1;entryDx=0;entryDy=0;" edge="1" parent="1" source="q54ViZXTZ3jLKYGIA-PN-31" target="q54ViZXTZ3jLKYGIA-PN-39">
          <mxGeometry width="50" height="50" relative="1" as="geometry">
            <mxPoint x="390" y="550" as="sourcePoint" />
            <mxPoint x="440" y="500" as="targetPoint" />
          </mxGeometry>
        </mxCell>
        <mxCell id="q54ViZXTZ3jLKYGIA-PN-43" value="patiënt_id" style="rounded=0;whiteSpace=wrap;html=1;" vertex="1" parent="1">
          <mxGeometry x="130" y="865" width="120" height="60" as="geometry" />
        </mxCell>
        <mxCell id="q54ViZXTZ3jLKYGIA-PN-44" value="patiëntnaam" style="rounded=0;whiteSpace=wrap;html=1;" vertex="1" parent="1">
          <mxGeometry x="250" y="740" width="120" height="60" as="geometry" />
        </mxCell>
        <mxCell id="q54ViZXTZ3jLKYGIA-PN-45" value="diagnose" style="rounded=0;whiteSpace=wrap;html=1;" vertex="1" parent="1">
          <mxGeometry x="370" y="865" width="120" height="60" as="geometry" />
        </mxCell>
        <mxCell id="q54ViZXTZ3jLKYGIA-PN-46" value="dokter" style="rounded=0;whiteSpace=wrap;html=1;" vertex="1" parent="1">
          <mxGeometry x="490" y="865" width="120" height="60" as="geometry" />
        </mxCell>
        <mxCell id="q54ViZXTZ3jLKYGIA-PN-47" value="dokter_specialisatie" style="rounded=0;whiteSpace=wrap;html=1;" vertex="1" parent="1">
          <mxGeometry x="610" y="1000" width="120" height="60" as="geometry" />
        </mxCell>
        <mxCell id="q54ViZXTZ3jLKYGIA-PN-48" value="kamernummer" style="rounded=0;whiteSpace=wrap;html=1;" vertex="1" parent="1">
          <mxGeometry x="610" y="865" width="120" height="60" as="geometry" />
        </mxCell>
        <mxCell id="q54ViZXTZ3jLKYGIA-PN-49" value="bezoekdatum" style="rounded=0;whiteSpace=wrap;html=1;" vertex="1" parent="1">
          <mxGeometry x="250" y="865" width="120" height="60" as="geometry" />
        </mxCell>
        <mxCell id="q54ViZXTZ3jLKYGIA-PN-50" value="" style="endArrow=classic;startArrow=classic;html=1;rounded=0;" edge="1" parent="1">
          <mxGeometry width="50" height="50" relative="1" as="geometry">
            <mxPoint x="130" y="860" as="sourcePoint" />
            <mxPoint x="370" y="860" as="targetPoint" />
          </mxGeometry>
        </mxCell>
        <mxCell id="q54ViZXTZ3jLKYGIA-PN-51" value="patiënt_id" style="rounded=0;whiteSpace=wrap;html=1;" vertex="1" parent="1">
          <mxGeometry x="130" y="740" width="120" height="60" as="geometry" />
        </mxCell>
        <mxCell id="q54ViZXTZ3jLKYGIA-PN-52" value="" style="endArrow=classic;startArrow=classic;html=1;rounded=0;" edge="1" parent="1">
          <mxGeometry width="50" height="50" relative="1" as="geometry">
            <mxPoint x="130" y="730" as="sourcePoint" />
            <mxPoint x="250" y="730" as="targetPoint" />
          </mxGeometry>
        </mxCell>
        <mxCell id="q54ViZXTZ3jLKYGIA-PN-53" value="" style="endArrow=classic;html=1;rounded=0;exitX=0.5;exitY=0;exitDx=0;exitDy=0;entryX=0.5;entryY=1;entryDx=0;entryDy=0;" edge="1" parent="1" source="q54ViZXTZ3jLKYGIA-PN-43" target="q54ViZXTZ3jLKYGIA-PN-51">
          <mxGeometry width="50" height="50" relative="1" as="geometry">
            <mxPoint x="390" y="840" as="sourcePoint" />
            <mxPoint x="440" y="790" as="targetPoint" />
          </mxGeometry>
        </mxCell>
        <mxCell id="q54ViZXTZ3jLKYGIA-PN-54" value="Patiënt" style="text;html=1;align=center;verticalAlign=middle;whiteSpace=wrap;rounded=0;" vertex="1" parent="1">
          <mxGeometry x="40" y="750" width="60" height="30" as="geometry" />
        </mxCell>
        <mxCell id="q54ViZXTZ3jLKYGIA-PN-55" value="Bezoek" style="text;html=1;align=center;verticalAlign=middle;resizable=0;points=[];autosize=1;strokeColor=none;fillColor=none;" vertex="1" parent="1">
          <mxGeometry x="40" y="870" width="60" height="30" as="geometry" />
        </mxCell>
        <mxCell id="q54ViZXTZ3jLKYGIA-PN-56" value="dokter" style="rounded=0;whiteSpace=wrap;html=1;" vertex="1" parent="1">
          <mxGeometry x="490" y="1000" width="120" height="60" as="geometry" />
        </mxCell>
        <mxCell id="q54ViZXTZ3jLKYGIA-PN-57" value="" style="endArrow=classic;startArrow=classic;html=1;rounded=0;" edge="1" parent="1">
          <mxGeometry width="50" height="50" relative="1" as="geometry">
            <mxPoint x="490" y="990" as="sourcePoint" />
            <mxPoint x="610" y="990" as="targetPoint" />
          </mxGeometry>
        </mxCell>
        <mxCell id="q54ViZXTZ3jLKYGIA-PN-58" value="" style="endArrow=classic;html=1;rounded=0;exitX=0.5;exitY=1;exitDx=0;exitDy=0;entryX=0.5;entryY=0;entryDx=0;entryDy=0;" edge="1" parent="1" source="q54ViZXTZ3jLKYGIA-PN-46" target="q54ViZXTZ3jLKYGIA-PN-56">
          <mxGeometry width="50" height="50" relative="1" as="geometry">
            <mxPoint x="420" y="950" as="sourcePoint" />
            <mxPoint x="470" y="900" as="targetPoint" />
          </mxGeometry>
        </mxCell>
        <mxCell id="q54ViZXTZ3jLKYGIA-PN-59" value="Dokter" style="text;html=1;align=center;verticalAlign=middle;resizable=0;points=[];autosize=1;strokeColor=none;fillColor=none;" vertex="1" parent="1">
          <mxGeometry x="40" y="1015" width="60" height="30" as="geometry" />
        </mxCell>
        <mxCell id="q54ViZXTZ3jLKYGIA-PN-60" value="3NF" style="text;html=1;align=center;verticalAlign=middle;whiteSpace=wrap;rounded=0;" vertex="1" parent="1">
          <mxGeometry x="40" y="680" width="60" height="30" as="geometry" />
        </mxCell>
      </root>
    </mxGraphModel>
  </diagram>
</mxfile>
